<svg width="256" height="256" viewBox="0 0 256 256" fill="none" xmlns="http://www.w3.org/2000/svg">
<path d="M37.3334 192V74.6667C37.3334 32 48 21.3333 90.6667 21.3333H165.333C208 21.3333 218.667 32 218.667 74.6667V181.333C218.667 182.827 218.667 184.32 218.56 185.813" stroke="#22C55E" stroke-width="15" stroke-linecap="round" stroke-linejoin="round"/>
<path d="M67.7334 160H218.667V197.333C218.667 217.92 201.92 234.667 181.333 234.667H74.6667C54.08 234.667 37.3334 217.92 37.3334 197.333V190.4C37.3334 173.653 50.9867 160 67.7334 160Z" stroke="#22C55E" stroke-width="15" stroke-linecap="round" stroke-linejoin="round"/>
<path d="M85.3334 74.6667H170.667" stroke="#22C55E" stroke-width="15" stroke-linecap="round" stroke-linejoin="round"/>
<path d="M85.3334 112H138.667" stroke="#22C55E" stroke-width="15" stroke-linecap="round" stroke-linejoin="round"/>
<path d="M88.0898 198.399H78.959L78.9102 193.37H86.5762C87.9271 193.37 89.0339 193.199 89.8965 192.857C90.7591 192.499 91.402 191.987 91.8252 191.319C92.2646 190.636 92.4844 189.806 92.4844 188.829C92.4844 187.722 92.2728 186.827 91.8496 186.144C91.4427 185.46 90.7998 184.964 89.9209 184.654C89.0583 184.345 87.9434 184.19 86.5762 184.19H81.498V214H74.1738V178.453H86.5762C88.6432 178.453 90.4906 178.648 92.1182 179.039C93.762 179.43 95.1536 180.024 96.293 180.821C97.4323 181.619 98.3031 182.628 98.9053 183.849C99.5075 185.053 99.8086 186.485 99.8086 188.146C99.8086 189.61 99.4749 190.961 98.8076 192.198C98.1566 193.435 97.123 194.444 95.707 195.226C94.3073 196.007 92.4762 196.438 90.2139 196.52L88.0898 198.399ZM87.7725 214H76.957L79.8135 208.287H87.7725C89.0583 208.287 90.1081 208.084 90.9219 207.677C91.7357 207.254 92.3379 206.684 92.7285 205.968C93.1191 205.252 93.3145 204.43 93.3145 203.502C93.3145 202.46 93.1354 201.557 92.7773 200.792C92.4355 200.027 91.8822 199.441 91.1172 199.034C90.3522 198.611 89.3431 198.399 88.0898 198.399H81.0342L81.083 193.37H89.8721L91.5566 195.348C93.7214 195.315 95.4629 195.698 96.7812 196.495C98.1159 197.276 99.0843 198.294 99.6865 199.547C100.305 200.8 100.614 202.143 100.614 203.575C100.614 205.854 100.118 207.774 99.125 209.337C98.1322 210.883 96.6755 212.047 94.7549 212.828C92.8506 213.609 90.5231 214 87.7725 214ZM113.09 187.584V214H106.034V187.584H113.09ZM105.595 180.699C105.595 179.674 105.953 178.827 106.669 178.16C107.385 177.493 108.345 177.159 109.55 177.159C110.738 177.159 111.69 177.493 112.406 178.16C113.139 178.827 113.505 179.674 113.505 180.699C113.505 181.725 113.139 182.571 112.406 183.238C111.69 183.906 110.738 184.239 109.55 184.239C108.345 184.239 107.385 183.906 106.669 183.238C105.953 182.571 105.595 181.725 105.595 180.699ZM118.9 176.5H125.932V207.945L125.224 214H118.9V176.5ZM142.655 200.523V201.036C142.655 203.006 142.444 204.812 142.021 206.456C141.614 208.1 140.979 209.524 140.116 210.729C139.254 211.917 138.179 212.844 136.894 213.512C135.624 214.163 134.127 214.488 132.401 214.488C130.79 214.488 129.39 214.163 128.202 213.512C127.03 212.861 126.046 211.941 125.248 210.753C124.451 209.565 123.808 208.173 123.319 206.578C122.831 204.983 122.465 203.242 122.221 201.354V200.23C122.465 198.342 122.831 196.601 123.319 195.006C123.808 193.411 124.451 192.019 125.248 190.831C126.046 189.643 127.03 188.723 128.202 188.072C129.374 187.421 130.757 187.096 132.353 187.096C134.094 187.096 135.608 187.429 136.894 188.097C138.196 188.748 139.27 189.675 140.116 190.88C140.979 192.068 141.614 193.484 142.021 195.128C142.444 196.756 142.655 198.554 142.655 200.523ZM135.624 201.036V200.523C135.624 199.449 135.543 198.44 135.38 197.496C135.233 196.536 134.973 195.698 134.599 194.981C134.224 194.249 133.712 193.671 133.061 193.248C132.426 192.825 131.604 192.613 130.595 192.613C129.634 192.613 128.821 192.776 128.153 193.102C127.486 193.427 126.933 193.883 126.493 194.469C126.07 195.055 125.753 195.755 125.541 196.568C125.329 197.366 125.199 198.245 125.15 199.205V202.403C125.199 203.689 125.411 204.828 125.785 205.821C126.176 206.798 126.762 207.571 127.543 208.141C128.34 208.694 129.374 208.971 130.644 208.971C131.636 208.971 132.458 208.775 133.109 208.385C133.76 207.994 134.265 207.441 134.623 206.725C134.997 206.008 135.258 205.17 135.404 204.21C135.551 203.233 135.624 202.175 135.624 201.036ZM154.447 176.5V214H147.392V176.5H154.447ZM172.416 214.488C170.365 214.488 168.526 214.163 166.898 213.512C165.271 212.844 163.887 211.925 162.748 210.753C161.625 209.581 160.762 208.222 160.16 206.676C159.558 205.113 159.257 203.453 159.257 201.695V200.719C159.257 198.717 159.542 196.886 160.111 195.226C160.681 193.565 161.495 192.125 162.553 190.904C163.627 189.684 164.929 188.748 166.459 188.097C167.989 187.429 169.714 187.096 171.635 187.096C173.507 187.096 175.167 187.405 176.615 188.023C178.064 188.642 179.276 189.521 180.253 190.66C181.246 191.799 181.994 193.167 182.499 194.762C183.004 196.34 183.256 198.098 183.256 200.035V202.965H162.26V198.277H176.347V197.74C176.347 196.764 176.168 195.893 175.81 195.128C175.468 194.347 174.947 193.728 174.247 193.272C173.547 192.817 172.652 192.589 171.562 192.589C170.634 192.589 169.836 192.792 169.169 193.199C168.502 193.606 167.956 194.176 167.533 194.908C167.126 195.641 166.817 196.503 166.605 197.496C166.41 198.473 166.312 199.547 166.312 200.719V201.695C166.312 202.753 166.459 203.73 166.752 204.625C167.061 205.52 167.493 206.293 168.046 206.944C168.616 207.595 169.299 208.1 170.097 208.458C170.91 208.816 171.83 208.995 172.855 208.995C174.125 208.995 175.305 208.751 176.396 208.263C177.502 207.758 178.454 207.001 179.252 205.992L182.67 209.703C182.117 210.501 181.36 211.266 180.399 211.998C179.455 212.73 178.316 213.333 176.981 213.805C175.647 214.26 174.125 214.488 172.416 214.488ZM187.602 210.606C187.602 209.565 187.96 208.694 188.676 207.994C189.408 207.294 190.377 206.944 191.581 206.944C192.785 206.944 193.746 207.294 194.462 207.994C195.194 208.694 195.561 209.565 195.561 210.606C195.561 211.648 195.194 212.519 194.462 213.219C193.746 213.919 192.785 214.269 191.581 214.269C190.377 214.269 189.408 213.919 188.676 213.219C187.96 212.519 187.602 211.648 187.602 210.606Z" fill="#22C55E"/>
</svg>
